{"title":"Thirteen Days.2000.DvDRiP.XviD.Swe_Sub.avi","uid":5479205,"size":743189348,"categoryP":"video","categoryS":"movies","magnet":"?xt=urn:btih:2d3d2d2c44289b0ee0006e38c30456547fffc446&amp;dn=Thirteen+Days.2000.DvDRiP.XviD.Swe_Sub.avi&amp;tr=udp%3A%2F%2Ftracker.openbittorrent.com%3A80&amp;tr=udp%3A%2F%2Fopen.demonii.com%3A1337&amp;tr=udp%3A%2F%2Ftracker.coppersurfer.tk%3A6969&amp;tr=udp%3A%2F%2Fexodus.desync.com%3A6969","seeders":0,"leechers":1,"uploader":"Zen_Bud","files":-1,"time":1270314105,"description":"General\nComplete name                    : Thirteen Days (2000).avi\nFormat                           : AVI\nFile size                        : 709 MiB\nDuration                         : 2h 19mn\nOverall bit rate                 : 710 Kbps\n\nVideo\nID                               : 0\nFormat                           : MPEG-4 Visual\nCodec ID                         : XVID\nCodec ID/Hint                    : XviD\nDuration                         : 2h 19mn\nBit rate                         : 569 Kbps\nWidth                            : 720 pixels\nHeight                           : 384 pixels\nDisplay aspect ratio             : 1.875\nFrame rate                       : 25.000 fps\nResolution                       : 8 bits\nColorimetry                      : 4:2:0\nScan type                        : Progressive\nBits/(Pixel*Frame)               : 0.082\nStream size                      : 568 MiB (80%)\nWriting library                  : XviD 1.1.2 (UTC 2006-11-01)\n\nAudio\nID                               : 1\nFormat                           : MPEG Audio\nFormat version                   : Version 1\nFormat profile                   : Layer 3\nMode                             : Joint stereo\nFormat_Settings_ModeExtension    : MS Stereo\nCodec ID                         : 55\nCodec ID/Hint                    : MP3\nDuration                         : 2h 19mn\nBit rate mode                    : Constant\nBit rate                         : 128 Kbps\nChannel(s)                       : 2 channels\nSampling rate                    : 48.0 KHz\nStream size                      : 128 MiB (18%)\nAlignment                        : Split accross interleaves\nInterleave, duration             : 24 ms (0.60 video frame)\n\n","torrent":{"xt":"urn:btih:2d3d2d2c44289b0ee0006e38c30456547fffc446","amp;dn":"Thirteen+Days.2000.DvDRiP.XviD.Swe_Sub.avi","amp;tr":["udp%3A%2F%2Ftracker.openbittorrent.com%3A80","udp%3A%2F%2Fopen.demonii.com%3A1337","udp%3A%2F%2Ftracker.coppersurfer.tk%3A6969","udp%3A%2F%2Fexodus.desync.com%3A6969"],"infoHash":"2d3d2d2c44289b0ee0006e38c30456547fffc446","infoHashBuffer":{"type":"Buffer","data":[45,61,45,44,68,40,155,14,224,0,110,56,195,4,86,84,127,255,196,70]},"announce":[],"urlList":[]}}